# xmcd
#
# Track frame offsets:
#	150
#	5533
#	15305
#	29066
#	41126
#	44856
#	55294
#	65403
#	89689
#	108019
#	126474
#	144576
#	178744
#	206102
#	232645
#	248835
#	272431
#	295690
#
# Disc length: 4348 seconds
#
# Revision: 1
# Processed by: cddbd v1.5.2PL0 Copyright (c) Steve Scherf et al.
# Submitted via: audiograbber 1.83.01
#
DISCID=0710fa12
DTITLE=Alicia Keys  - Unplugged
DYEAR=1900
DGENRE=
TTITLE0=Intro Alicia's Prayer [Acapella]
TTITLE1=Karma
TTITLE2=Heartburn
TTITLE3=A Woman's Worth [Live]
TTITLE4=Unbreakable (H)
TTITLE5=Unbreakable
TTITLE6=How Come You Don't Call Me (H)
TTITLE7=How Come You Don't Call Me
TTITLE8=If I Was Your Woman
TTITLE9=If I Ain't Got You
TTITLE10=Every Little Bit Hurts
TTITLE11=Streets Of New York [City Life]
TTITLE12=Wild Horses [featuring Adam Levine]
TTITLE13=Diary
TTITLE14=You Don't Know My Name
TTITLE15=Stolen Moments
TTITLE16=Fallin'
TTITLE17=Welcome To Jamrock [with Damian Marley, Mos Def, Comon and Friends]
EXTD=
EXTT0=
EXTT1=
EXTT2=
EXTT3=
EXTT4=
EXTT5=
EXTT6=
EXTT7=
EXTT8=
EXTT9=
EXTT10=
EXTT11=
EXTT12=
EXTT13=
EXTT14=
EXTT15=
EXTT16=
EXTT17=
PLAYORDER=
